# xmcd CD database file
# Copyright (C) 1995-1998 Ti Kan
#
# Track frame offsets:
#	150
#	11639
#	27422
#	43890
#	55460
#	65180
#	80769
#	96273
#	106048
#	117187
#	133893
#	146645
#	154960
#	166566
#
# Disc length: 2405 seconds
#
# Revision: 1
# Processed by: cddbd v1.4PL0 Copyright (c) Steve Scherf et al.
# Submitted via: CDex 1.30Release
#
DISCID=c709630e
DTITLE=George Kamikawa - Big Wheel Blues
DYEAR=2002
DGENRE=Blues
TTITLE0=Big Wheel Blues
TTITLE1=Ramblin' On My Mind
TTITLE2=That's Alright Mama
TTITLE3=Reet Petite
TTITLE4=Kai
TTITLE5=Queen Of The Night
TTITLE6=Travelin' Blues
TTITLE7=Blue Nails
TTITLE8=Southern Comfort
TTITLE9=Diggin' My Potatoes
TTITLE10=Side Eclipse
TTITLE11=Homesick Ballad
TTITLE12=Mojo Working
TTITLE13=Leaving Blues
EXTD=YEAR: 2002 ID3G:   0
EXTT0=
EXTT1=
EXTT2=
EXTT3=
EXTT4=
EXTT5=
EXTT6=
EXTT7=
EXTT8=
EXTT9=
EXTT10=
EXTT11=
EXTT12=
EXTT13=
PLAYORDER=
